<!DOCTYPE svg PUBLIC "-//W3C//DTD SVG 1.1//EN" "http://www.w3.org/Graphics/SVG/1.1/DTD/svg11.dtd">
<!-- Uploaded to: SVG Repo, www.svgrepo.com, Transformed by: SVG Repo Mixer Tools -->
<svg width="800px" height="800px" viewBox="0 0 1024 1024" class="icon" version="1.1" xmlns="http://www.w3.org/2000/svg" fill="#000000">
<g id="SVGRepo_bgCarrier" stroke-width="0"/>
<g id="SVGRepo_tracerCarrier" stroke-linecap="round" stroke-linejoin="round"/>
<g id="SVGRepo_iconCarrier">
<path d="M853.333333 725.333333h85.333334v213.333334h-85.333334zM725.333333 618.666667h85.333334v320h-85.333334zM597.333333 704h85.333334v234.666667h-85.333334zM469.333333 533.333333h85.333334v405.333334h-85.333334zM341.333333 597.333333h85.333334v341.333334h-85.333334zM213.333333 512h85.333334v426.666667h-85.333334zM85.333333 405.333333h85.333334v533.333334H85.333333z" fill="#F44336"/>
<path d="M725.333333 281.6l-85.333333 85.333333-213.333333-213.333333-106.666667 106.666667-162.133333-162.133334-59.733334 59.733334L320 379.733333l106.666667-106.666666 213.333333 213.333333 85.333333-85.333333 130.133334 130.133333 59.733333-59.733333z" fill="#D32F2F"/>
<path d="M938.666667 554.666667h-192l192-192z" fill="#D32F2F"/>
</g>
</svg>